<?xml version="1.0" standalone="no"?><!DOCTYPE svg PUBLIC "-//W3C//DTD SVG 1.1//EN" "http://www.w3.org/Graphics/SVG/1.1/DTD/svg11.dtd"><svg t="1598704968646" class="icon" viewBox="0 0 1024 1024" version="1.1" xmlns="http://www.w3.org/2000/svg" p-id="1756" xmlns:xlink="http://www.w3.org/1999/xlink" width="200" height="200"><defs><style type="text/css"></style></defs><path d="M170.666667 42.666667c-47.36 0-85.333333 37.973333-85.333334 85.333333v170.666667c0 47.36 37.973333 85.333333 85.333334 85.333333H42.666667v85.333333h512V384h-128c47.36 0 85.333333-37.973333 85.333333-85.333333V128c0-47.36-37.973333-85.333333-85.333333-85.333333H170.666667m0 85.333333h256v170.666667H170.666667V128m426.666666 426.666667c-47.36 0-85.333333 37.973333-85.333333 85.333333v170.666667c0 47.36 37.973333 85.333333 85.333333 85.333333h-128v85.333333h512v-85.333333h-128c47.36 0 85.333333-37.973333 85.333334-85.333333v-170.666667c0-47.36-37.973333-85.333333-85.333334-85.333333h-256m-431.786666 19.626666l-60.586667 60.586667L195.84 725.333333l-90.88 90.453334 60.586667 60.586666L256 785.493333l90.453333 90.88 60.586667-60.586666L316.16 725.333333l90.88-90.453333-60.586667-60.586667L256 665.173333l-90.453333-90.88M597.333333 640h256v170.666667h-256v-170.666667z" fill="#ffffff" p-id="1757"></path></svg>